<svg width="429" height="92.7031890940778" viewBox="0 0 370 79.95379945176873" xmlns="http://www.w3.org/2000/svg"><defs></defs><g transform="matrix(0.13769232404792572,0,0,0.13769232404792572,0,0.0000036767817243022157)" fill="#fe904d"><g><path d="M-0 0c24.53,0 108.96,0 128.18,3.58 37.3,6.95 59.25,31.4 69.88,66.75 4.67,15.55 8.5,31.88 11.77,48.73l225.01 0 -135.62 234.91 -54.75 0c5.73,26.17 9.74,40.56 15.67,45.76 23.16,20.3 350.38,6.96 350.38,12.61 45.05,1.86 80.66,39.02 80.66,84.13 0,46.49 -37.71,84.2 -84.2,84.2 -55.72,0 -96.5,-53.8 -80.88,-107.69 -67.64,-0.1 -130.8,-0.48 -178.53,-1.78 16.88,53.72 -23.11,109.47 -80.33,109.47 -46.5,0 -84.21,-37.71 -84.21,-84.2 0,-23.23 9.6,-45.53 26.59,-61.39 -13.35,-17.42 -19.47,-41.22 -27.48,-78.71 -18.7,-87.47 -17.64,-184.22 -42.97,-268.49 -3.78,-12.58 -8.32,-21.41 -22.05,-23.97 -12.78,-2.38 -93.63,-2.38 -117.12,-2.38l0 -61.53zm493.12 119.06l55.69 0 -135.62 234.91 -55.7 0 135.63 -234.91zm113.97 0l108.83 0c8.49,0 12.59,8.08 9.08,17.83 -22.88,63.4 -45.75,126.8 -68.61,190.2 -5.39,14.94 -21.65,26.88 -36.13,26.88l-148.79 0 135.62 -234.91zm-339.85 354.74c-12.53,0 -22.67,10.14 -22.67,22.67 0,12.53 10.14,22.67 22.67,22.67 12.52,0 22.67,-10.14 22.67,-22.67 0,-12.53 -10.15,-22.67 -22.67,-22.67zm355.77 6.64c-4.1,-4.1 -9.77,-6.64 -16.03,-6.64 -6.27,0 -11.94,2.54 -16.03,6.64 -4.1,4.09 -6.64,9.76 -6.64,16.03 0,6.26 2.54,11.93 6.64,16.03 4.09,4.1 9.76,6.64 16.03,6.64 6.26,0 11.93,-2.54 16.03,-6.64 4.1,-4.1 6.64,-9.77 6.64,-16.03 0,-6.27 -2.54,-11.94 -6.64,-16.03z" style="fill-rule:nonzero" fill="#FE904D"></path></g></g><g transform="matrix(5.6331679581597,0,0,5.6331679581597,113.57818860828105,-33.7990077489582)" fill="#8b3a2a"><path d="M1.14 20 l0 -12.24 l5.8 0 c2.28 0 4.22 1.72 4.22 4.02 c0 2.32 -2 4.02 -4.22 4.02 l-2.8 0 l0 4.2 l-3 0 z M6.94 10.54 l-2.8 0 l0 2.48 l2.8 0 c0.7 0 1.22 -0.54 1.22 -1.24 s-0.52 -1.24 -1.22 -1.24 z M15.52 15 l0 5 l-3 0 l0 -4.98 c0 -3.32 2.44 -5.12 5.52 -5.12 c0.1 0 0.24 0 0.38 0.02 s0.3 0.06 0.44 0.08 l0 2.9 c-0.1 -0.02 -0.22 -0.04 -0.36 -0.06 s-0.26 -0.04 -0.36 -0.04 c-0.5 0 -0.9 0.06 -1.24 0.16 c-0.56 0.2 -1.06 0.58 -1.24 1.18 c-0.1 0.26 -0.14 0.56 -0.14 0.86 z M22.56 13.8 c0.3 0.1 0.64 0.18 1 0.22 c0.36 0.06 0.7 0.08 1.02 0.08 c0.4 0 1.42 -0.08 1.42 -0.66 c0 -0.62 -0.88 -0.64 -1.32 -0.64 c-0.88 0 -1.64 0.2 -2.12 1 z M28.22 16.88 l0 2.8 c-1.12 0.26 -2.24 0.44 -3.4 0.44 c-3.18 0 -5.54 -1.86 -5.54 -5.08 c0 -3.18 2.28 -5.14 5.3 -5.14 c2.06 0 4.44 0.98 4.44 3.32 c0 2.32 -2.52 3.18 -4.46 3.18 c-0.74 0 -1.48 -0.2 -2.16 -0.48 c0.4 1.12 1.6 1.3 2.64 1.3 c0.54 0 1.08 -0.02 1.62 -0.1 c0.5 -0.04 1.08 -0.1 1.56 -0.24 z M30.4 6 l3 0 l0 14 l-3 0 l0 -14 z M40.22 17.32 c1.46 0 2.3 -0.86 2.3 -2.32 s-0.84 -2.32 -2.3 -2.32 s-2.3 0.86 -2.3 2.32 s0.84 2.32 2.3 2.32 z M40.22 20.1 c-3.08 0 -5.3 -2.04 -5.3 -5.1 c0 -3.16 2.3 -5.1 5.3 -5.1 c3.1 0 5.3 2.04 5.3 5.1 c0 3.14 -2.32 5.1 -5.3 5.1 z"></path></g></svg>
